<?xml version="1.0" standalone="no"?>
<!DOCTYPE svg PUBLIC "-//W3C//DTD SVG 20010904//EN"
 "http://www.w3.org/TR/2001/REC-SVG-20010904/DTD/svg10.dtd">
<svg version="1.0" xmlns="http://www.w3.org/2000/svg"
 width="470.000000pt" height="470.000000pt" viewBox="0 0 470.000000 470.000000"
 preserveAspectRatio="xMidYMid meet" >
<g transform="translate(0.000000,470.000000) scale(0.100000,-0.100000)"
fill="#fff" stroke="none">

<path fill="#444496" d="M2297 4609 c-136 -32 -231 -151 -231 -289 0 -118 66 -218 177 -270
l59 -26 0 -100 0 -99 -259 -6 c-219 -5 -270 -9 -335 -27 -191 -52 -353 -147
-483 -283 -149 -156 -211 -275 -281 -536 -2 -7 -12 -13 -22 -13 -45 0 -161
-71 -220 -134 -107 -115 -137 -211 -130 -416 5 -139 21 -193 82 -285 l34 -52
-5 -170 c-13 -389 74 -699 285 -1018 96 -145 300 -347 452 -448 576 -381 1294
-383 1868 -4 358 237 613 607 706 1027 37 168 50 344 37 490 l-11 119 40 57
c56 80 81 166 87 294 8 179 -39 315 -146 420 -56 55 -143 105 -201 116 -22 5
-32 13 -36 33 -82 389 -352 680 -739 797 -86 26 -102 28 -352 32 l-263 4 0
103 0 104 38 11 c86 26 168 113 193 203 41 152 -55 318 -211 361 -62 18 -77
18 -133 5z m167 -136 c170 -121 43 -389 -158 -333 -133 37 -181 204 -88 304
67 71 169 83 246 29z m411 -764 c402 -56 720 -364 790 -766 21 -119 21 -596 0
-714 -71 -406 -391 -715 -797 -769 -55 -7 -248 -10 -563 -7 -456 3 -484 4
-564 25 -382 101 -657 418 -701 807 -13 119 -13 480 1 603 12 118 59 261 120
368 51 90 175 226 264 289 112 81 270 145 402 164 87 13 957 13 1048 0z
m-1943 -1176 c4 -284 7 -326 25 -393 12 -41 25 -84 29 -94 6 -17 4 -18 -22
-12 -59 14 -153 67 -189 107 -63 70 -96 154 -102 263 -10 163 24 271 111 358
38 39 116 88 138 88 3 0 8 -143 10 -317z m2910 296 c60 -30 135 -111 166 -177
25 -54 27 -66 27 -202 0 -136 -2 -148 -27 -202 -48 -102 -149 -188 -250 -212
-34 -8 -34 -6 -6 87 20 66 22 98 26 400 2 201 7 327 13 327 5 0 28 -9 51 -21z
m-2874 -901 l67 -11 45 -75 c25 -42 84 -117 132 -167 139 -146 275 -230 474
-292 l89 -28 575 0 c663 0 648 -2 855 100 182 89 325 219 431 392 l41 67 67
13 c37 6 91 23 120 36 l54 25 6 -21 c11 -42 6 -253 -9 -357 -49 -340 -200
-643 -444 -890 l-85 -85 -8 44 c-34 198 -167 376 -348 470 -143 75 -155 76
-675 76 -512 0 -520 -1 -660 -70 -180 -88 -304 -244 -353 -443 l-17 -73 -91
93 c-185 190 -297 373 -372 608 -59 186 -90 411 -77 566 l7 82 55 -25 c30 -14
84 -30 121 -35z m1881 -823 c105 -25 188 -72 266 -150 103 -103 165 -237 165
-358 0 -42 -2 -46 -54 -80 -149 -99 -338 -180 -526 -224 -155 -37 -436 -44
-605 -15 -210 36 -418 117 -592 230 -67 44 -73 50 -73 82 0 61 29 160 68 234
71 136 218 249 365 281 95 21 898 20 986 0z"/>

<path fill="#7674cc" d="M1824 3299 c-137 -23 -265 -91 -369 -194 -115 -116 -175 -242 -197
-413 -14 -117 -4 -418 16 -497 59 -224 234 -409 452 -481 l89 -29 545 0 c544
0 545 0 615 23 223 75 386 238 456 457 19 60 23 99 27 279 5 232 -5 322 -45
426 -59 149 -180 285 -321 358 -147 77 -135 75 -707 78 -280 1 -533 -2 -561
-7z m1091 -114 c193 -49 352 -200 411 -390 25 -80 25 -87 22 -321 -4 -267 -9
-293 -76 -403 -78 -129 -199 -222 -347 -268 -55 -16 -103 -18 -570 -18 -499 0
-512 0 -580 22 -200 64 -354 229 -401 431 -13 53 -15 111 -12 287 4 206 6 224
29 286 38 98 75 157 143 224 66 65 171 126 257 149 82 22 1039 23 1124 1z"/>

<path fill="#4c4ca7" d="M1778 2750 c-105 -57 -109 -209 -7 -278 28 -20 44 -23 94 -20 70 4
103 24 136 81 39 70 17 158 -54 211 -38 28 -122 32 -169 6z"/>
<path fill="#4c4ca7" d="M2800 2763 c-101 -38 -140 -174 -73 -253 73 -87 198 -81 267 13 16
21 21 43 21 86 0 48 -5 64 -29 95 -16 21 -44 44 -62 52 -33 14 -96 17 -124 7z"/>
<path stroke="green" fill="#4c4ca7" d="M2086 2294 c-23 -22 -20 -49 11 -95 70 -106 224 -154 361 -114 95 28
186 119 180 179 -6 62 -66 60 -110 -4 -78 -113 -269 -110 -349 6 -32 48 -64
57 -93 28z"/>
</g>
</svg>
